HIERARCHY
ROOT Hips
{
	OFFSET 0.000000 8.830580 0.000000
	CHANNELS 6 Xposition Yposition Zposition Zrotation Yrotation Xrotation 
	JOINT Spine
	{
		OFFSET 0.000000 0.010000 0.000000
		CHANNELS 3 Zrotation Yrotation Xrotation
		JOINT Spine1
		{
			OFFSET 0.000000 2.459130 0.000000
			CHANNELS 3 Zrotation Yrotation Xrotation
			JOINT Neck
			{
				OFFSET 0.000000 2.484630 0.000000
				CHANNELS 3 Zrotation Yrotation Xrotation
				JOINT Head_virtual
				{
					OFFSET 0.000000 0.000000 0.000000
					CHANNELS 3 Zrotation Yrotation Xrotation
					JOINT Head
					{
						OFFSET 0.000000 0.927525 0.000000
						CHANNELS 3 Zrotation Yrotation Xrotation
						End Site
						{
							OFFSET 0.000000 0.000000 0.000000
						}
					}
				}
				JOINT LeftUpArm_virtual
				{
					OFFSET 0.000000 0.000000 0.000000
					CHANNELS 3 Zrotation Yrotation Xrotation
					JOINT LeftUpArm
					{
						OFFSET 1.248820 0.000000 0.000000
						CHANNELS 3 Zrotation Yrotation Xrotation
						JOINT LeftForeArm
						{
							OFFSET 2.597580 0.000000 0.000000
							CHANNELS 3 Zrotation Yrotation Xrotation
							JOINT LeftHand
							{
								OFFSET 2.455420 0.000000 0.000000
								CHANNELS 3 Zrotation Yrotation Xrotation
								End Site
								{
									OFFSET 0.000000 0.000000 0.000000
								}
							}
						}
					}
				}
				JOINT RightUpArm_virtual
				{
					OFFSET -0.000000 -0.000000 -0.000000
					CHANNELS 3 Zrotation Yrotation Xrotation
					JOINT RightUpArm
					{
						OFFSET -1.248820 -0.000000 -0.000000
						CHANNELS 3 Zrotation Yrotation Xrotation
						JOINT RightForeArm
						{
							OFFSET -2.597580 -0.000000 -0.000000
							CHANNELS 3 Zrotation Yrotation Xrotation
							JOINT RightHand
							{
								OFFSET -2.455420 -0.000000 -0.000000
								CHANNELS 3 Zrotation Yrotation Xrotation
								End Site
								{
									OFFSET 0.000000 0.000000 0.000000
								}
							}
						}
					}
				}
			}
		}
	}
	JOINT LeftUpLeg
	{
		OFFSET 1.271939 0.000000 0.000000
		CHANNELS 3 Zrotation Yrotation Xrotation
		JOINT LeftLowLeg
		{
			OFFSET 0.000000 -4.342910 0.000000
			CHANNELS 3 Zrotation Yrotation Xrotation
			JOINT LeftFoot
			{
				OFFSET 0.000000 -4.487670 0.000000
				CHANNELS 3 Zrotation Yrotation Xrotation
				JOINT LeftToeBase
				{
					OFFSET 0.000000 0.000000 1.515070
					CHANNELS 3 Zrotation Yrotation Xrotation
					End Site
					{
						OFFSET 0.000000 0.000000 0.000000
					}
				}
			}
		}
	}
	JOINT RightUpLeg
	{
		OFFSET -1.271939 0.000000 0.000000
		CHANNELS 3 Zrotation Yrotation Xrotation
		JOINT RightLowLeg
		{
			OFFSET 0.000000 -4.342910 0.000000
			CHANNELS 3 Zrotation Yrotation Xrotation
			JOINT RightFoot
			{
				OFFSET 0.000000 -4.487670 0.000000
				CHANNELS 3 Zrotation Yrotation Xrotation
				JOINT RightToeBase
				{
					OFFSET 0.000000 0.000000 1.515070
					CHANNELS 3 Zrotation Yrotation Xrotation
					End Site
					{
						OFFSET 0.000000 0.000000 0.000000
					}
				}
			}
		}
	}
}
MOTION
Frames: 13
Frame Time: 0.041667
-16.690001 9.301628 36.003677 -174.014535 -2.068397 176.101225 5.994415 -3.506136 -21.810510 -4.781901 4.993719 33.339857 0.000000 0.000000 0.000000 0.144109 3.838898 -8.700403 3.885735 6.886555 -67.731471 -27.822300 -3.713680 -10.715200 -33.921101 2.476660 37.320900 0.000000 -30.712500 0.000000 10.046800 6.250350 -0.090568 31.954901 0.666225 -6.255750 40.907600 4.342360 26.347700 0.000000 27.733900 0.000000 -4.683120 -0.450984 -8.120430 9.870308 15.905323 10.886787 0.000000 0.000000 1.043820 -7.320284 4.039414 10.198505 0.000000 0.000000 -11.905890 7.329047 9.545839 8.934505 0.000000 0.000000 5.200910 15.199595 -25.074131 9.170276 0.000000 0.000000 -13.660240 
-16.671190 9.304456 35.999267 -174.037124 -2.254975 176.083309 6.135828 -3.305566 -21.835192 -4.960337 4.963790 33.303157 0.000000 0.000000 0.000000 0.577061 3.687226 -8.536193 3.779346 6.976751 -67.756800 -27.855900 -3.633090 -10.577200 -34.066700 2.393880 36.494801 0.000000 -30.254601 0.000000 10.258200 6.333870 -0.791853 32.045898 0.603333 -6.336880 40.969299 4.351070 26.316900 0.000000 27.674601 0.000000 -4.651440 -0.475806 -8.377630 9.930474 15.850496 10.823829 0.000000 0.000000 1.094200 -7.305514 4.061476 10.329785 0.000000 0.000000 -11.921810 7.420241 9.437630 8.925405 0.000000 0.000000 5.292470 15.195325 -25.163139 9.171245 0.000000 0.000000 -13.478310 
-16.655738 9.308163 36.003209 -174.027517 -2.355676 176.160305 6.389499 -2.941145 -21.841446 -5.348717 4.886064 33.259552 0.000000 0.000000 0.000000 1.059947 3.589458 -8.422253 3.721357 7.147215 -67.828102 -27.838499 -3.559010 -10.781000 -34.171902 2.438530 35.853500 0.000000 -29.798800 0.000000 10.271600 6.479070 -0.941737 32.260899 0.624552 -6.300350 40.951099 4.422280 26.143801 0.000000 27.609301 0.000000 -4.668920 -0.445533 -8.442920 9.979235 15.932190 10.575958 0.000000 0.000000 1.278510 -7.212737 4.069179 10.415669 0.000000 0.000000 -11.954930 7.460661 9.205364 8.743723 0.000000 0.000000 5.401230 15.016325 -25.092037 9.349986 0.000000 0.000000 -13.444050 
-16.643153 9.311661 36.008824 -174.057797 -2.535765 176.221836 6.735292 -2.366862 -21.714764 -6.238168 4.678680 33.083894 0.000000 0.000000 0.000000 1.840038 3.519607 -8.309550 3.595268 7.521716 -67.884629 -27.534100 -3.425630 -10.969100 -34.292900 2.443940 35.350300 0.000000 -29.296400 0.000000 10.099000 6.615780 -1.271630 32.738300 0.618887 -6.219240 40.895401 4.482790 26.086100 0.000000 27.620701 0.000000 -4.602380 -0.663670 -8.377450 9.977710 16.024056 10.289196 0.000000 0.000000 1.514760 -7.115490 3.997971 10.513625 0.000000 0.000000 -12.032910 7.485592 9.141227 8.569417 0.000000 0.000000 5.543330 15.064843 -25.188023 9.367099 0.000000 0.000000 -13.486640 
-16.634771 9.314258 36.019714 -174.090599 -2.690858 176.287701 7.399712 -1.177673 -21.324425 -8.180056 4.213636 32.539156 0.000000 0.000000 0.000000 3.289225 3.440961 -7.931855 3.280213 8.288096 -67.997845 -26.700100 -3.160980 -10.951000 -34.403099 2.339690 34.839298 0.000000 -28.789801 0.000000 9.718430 6.897860 -1.459680 33.774700 0.672141 -5.836710 40.731602 4.549710 26.017099 0.000000 27.583500 0.000000 -4.546660 -0.418257 -8.219760 9.934660 16.126809 9.979512 0.000000 0.000000 1.739080 -6.992514 3.962419 10.594296 0.000000 0.000000 -12.096810 7.469429 9.050796 8.340137 0.000000 0.000000 5.727980 15.127346 -25.225916 9.360600 0.000000 0.000000 -13.518870 
-16.626925 9.318766 36.035894 -174.123987 -2.834235 176.364804 7.850164 -0.379047 -21.199087 -9.354504 4.032330 32.612907 0.000000 0.000000 0.000000 4.435559 3.278159 -7.965866 3.129361 8.783150 -67.912610 -26.063999 -3.357950 -11.089800 -34.584702 2.321580 34.345901 0.000000 -28.280899 0.000000 9.151140 7.115690 -1.613740 34.333199 0.789760 -5.770610 40.669601 4.562130 25.837099 0.000000 27.661400 0.000000 -4.476180 -0.470323 -8.359460 9.877511 16.217844 9.612318 0.000000 0.000000 1.995930 -6.868055 3.916942 10.721319 0.000000 0.000000 -12.186920 7.439812 8.945728 8.060771 0.000000 0.000000 5.916510 15.112625 -25.268843 9.447568 0.000000 0.000000 -13.597980 
-16.620270 9.323754 36.057984 -174.170670 -3.040318 176.521120 8.012385 -0.230220 -21.372782 -9.528208 4.153559 33.388427 0.000000 0.000000 0.000000 5.013858 3.038991 -8.808284 3.251036 8.920790 -67.656325 -25.858700 -3.693480 -11.636800 -34.797298 2.121740 34.182598 0.000000 -27.826300 0.000000 8.409480 7.406030 -1.872690 34.269798 0.845612 -6.203790 40.733398 4.733620 25.988100 0.000000 27.734301 0.000000 -4.438930 -0.421956 -8.065840 9.732455 16.103707 9.071148 0.000000 0.000000 2.320160 -6.735892 3.987389 10.841369 0.000000 0.000000 -12.260740 7.399727 8.951031 7.653171 0.000000 0.000000 6.155300 15.123986 -25.450945 9.481694 0.000000 0.000000 -13.646500 
-16.614826 9.326045 36.084317 -174.219373 -3.249347 176.726242 8.196436 -0.080627 -21.245523 -9.874739 4.054298 33.690538 0.000000 0.000000 0.000000 5.458208 2.911347 -9.375516 3.429803 9.071397 -67.693369 -25.805901 -3.785070 -11.966300 -34.776402 1.766670 34.128300 0.000000 -27.373800 0.000000 7.733590 7.629740 -2.084980 34.382801 0.891832 -6.284220 40.617298 5.086250 26.175301 0.000000 27.777300 0.000000 -4.370530 -0.423598 -8.091130 9.542733 15.880971 8.431438 0.000000 0.000000 2.693910 -6.629817 4.137630 10.858213 0.000000 0.000000 -12.309690 7.319180 8.807152 7.172425 0.000000 0.000000 6.399050 15.100333 -25.512553 9.470369 0.000000 0.000000 -13.683040 
-16.609608 9.327223 36.117962 -174.279348 -3.508538 176.987689 8.269001 -0.088294 -21.134327 -9.991161 4.020224 34.046207 0.000000 0.000000 0.000000 5.898770 2.716448 -9.972456 3.685282 9.124215 -67.694559 -25.748100 -4.153770 -12.358200 -34.812199 1.550810 33.986099 0.000000 -26.939501 0.000000 7.069290 7.756370 -2.161150 34.416401 1.046870 -6.470710 40.473099 5.373680 26.389500 0.000000 27.784401 0.000000 -4.392520 -0.385712 -8.147600 9.291744 15.528264 7.604123 0.000000 0.000000 3.212010 -6.519140 4.366348 10.802016 0.000000 0.000000 -12.329190 7.232994 8.743200 6.532242 0.000000 0.000000 6.775110 15.110948 -25.694670 9.349724 0.000000 0.000000 -13.692850 
-16.607085 9.327580 36.161516 -174.332681 -3.756066 177.376825 8.520947 0.176928 -20.894405 -10.630679 3.838087 34.371750 0.000000 0.000000 0.000000 6.585370 2.602754 -10.805565 3.801962 9.456555 -67.854742 -25.605700 -3.508460 -11.434500 -34.854599 -0.803015 33.901402 0.000000 -26.228800 0.000000 6.738260 7.925100 -2.487610 34.690102 1.159780 -6.748320 40.382198 5.828170 26.815399 0.000000 27.722099 0.000000 -4.426220 -0.411318 -7.873910 8.985933 15.222825 6.537724 0.000000 0.000000 3.841690 -6.359843 4.589621 10.701478 0.000000 0.000000 -12.338200 7.060317 8.407750 5.655972 0.000000 0.000000 7.227670 15.090076 -25.616784 9.308467 0.000000 0.000000 -13.755050 
-16.604066 9.328696 36.208990 -174.360726 -4.123928 177.776678 8.565142 -0.041030 -20.770906 -10.606274 3.779386 34.922049 0.000000 0.000000 0.000000 6.923504 2.388863 -11.739658 4.099414 9.498610 -67.980368 -25.674299 -3.630280 -11.587300 -34.811001 -1.787290 34.115700 0.000000 -25.920401 0.000000 6.628600 8.042900 -2.444790 34.613400 1.408950 -7.105820 40.296001 6.261180 27.001400 0.000000 27.628500 0.000000 -4.267860 -0.354523 -7.578910 8.706645 14.885875 5.384349 0.000000 0.000000 4.510610 -6.215101 4.712217 10.639219 0.000000 0.000000 -12.340350 6.916203 8.011755 4.760793 0.000000 0.000000 7.659850 15.049666 -25.588303 9.310277 0.000000 0.000000 -13.802570 
-16.602117 9.330445 36.266088 -174.378160 -4.481881 178.223685 8.468826 -0.532703 -20.714937 -10.041624 3.884570 35.676248 0.000000 0.000000 0.000000 7.029950 2.098232 -12.656542 4.387843 9.393575 -68.405334 -25.613899 -5.049000 -12.792200 -34.855900 -0.817502 34.164200 0.000000 -26.171200 0.000000 6.936830 8.112260 -1.803200 34.192799 1.872570 -7.544040 40.260899 6.592260 27.097700 0.000000 27.529400 0.000000 -4.509110 -0.240442 -7.138710 8.407795 14.567459 4.131901 0.000000 0.000000 5.172580 -6.040792 4.852892 10.637295 0.000000 0.000000 -12.384300 6.701756 7.118627 3.788858 0.000000 0.000000 8.005960 14.811148 -25.157924 9.577941 0.000000 0.000000 -13.882170 
-16.601964 9.332368 36.328212 -174.404098 -4.678296 178.774111 8.428724 -0.865493 -20.452038 -9.558330 3.975861 36.320402 0.000000 0.000000 0.000000 7.071154 1.854262 -13.875346 4.755976 9.339015 -68.796647 -25.944901 -5.041600 -12.131700 -34.730801 -2.748190 34.123901 0.000000 -26.126400 0.000000 7.252750 8.143900 -1.800250 34.018299 2.050840 -7.350920 39.924301 7.663520 26.939800 0.000000 27.583900 0.000000 -4.562450 -0.344139 -7.160470 8.102877 14.637393 2.846735 0.000000 0.000000 5.740470 -5.837246 4.783098 10.724930 0.000000 0.000000 -12.442130 6.508092 6.735879 2.667848 0.000000 0.000000 8.408100 14.687376 -24.982022 9.731346 0.000000 0.000000 -14.002865 
